<?xml version="1.0" encoding="UTF-8" standalone="no"?>
<!-- Created with Inkscape (http://www.inkscape.org/) -->

<svg
   width="210mm"
   height="297mm"
   viewBox="0 0 210 297"
   version="1.1"
   id="svg1123"
   inkscape:version="1.2.1 (9c6d41e, 2022-07-14)"
   sodipodi:docname="a-mess.svg"
   xmlns:inkscape="http://www.inkscape.org/namespaces/inkscape"
   xmlns:sodipodi="http://sodipodi.sourceforge.net/DTD/sodipodi-0.dtd"
   xmlns="http://www.w3.org/2000/svg"
   xmlns:svg="http://www.w3.org/2000/svg">
  <sodipodi:namedview
     id="namedview1125"
     pagecolor="#ffffff"
     bordercolor="#111111"
     borderopacity="1"
     inkscape:showpageshadow="0"
     inkscape:pageopacity="0"
     inkscape:pagecheckerboard="1"
     inkscape:deskcolor="#d1d1d1"
     inkscape:document-units="mm"
     showgrid="false"
     inkscape:zoom="0.67715226"
     inkscape:cx="251.78975"
     inkscape:cy="614.33746"
     inkscape:window-width="1800"
     inkscape:window-height="1098"
     inkscape:window-x="0"
     inkscape:window-y="71"
     inkscape:window-maximized="0"
     inkscape:current-layer="layer1" />
  <defs
     id="defs1120" />
  <g
     inkscape:label="Layer 1"
     inkscape:groupmode="layer"
     id="layer1">
    <g
       aria-label="THis"
       id="text1246"
       style="font-weight:bold;font-size:50.8px;font-family:'Bradley Hand';-inkscape-font-specification:'Bradley Hand, Bold';fill:#ff6600;fill-opacity:0.333333;stroke:#000080;stroke-width:0.499999">
      <path
         d="m 59.937625,61.22088 -1.27,2.3876 -1.1684,0.1524 h -1.5748 l -0.8636,0.1524 -0.6604,-0.1524 -3.2004,0.254 -0.9144,-0.2032 -0.2032,0.0508 q -0.508,0.2032 -1.7272,0.4064 h -1.8288 l -0.4064,-0.1524 h -0.1524 q -0.508,0 -1.4732,0.254 -0.762,0.2032 -1.8796,0.2032 l -0.8128,-0.2032 -0.1524,0.6096 h -0.6096 l -0.1524,2.3876 0.254,0.4064 -0.1016,0.762 v 1.3208 q 0,2.0828 -0.4064,2.794 l 0.4064,0.5588 -0.3048,1.4732 0.3048,0.4064 -0.5588,0.8128 v 0.4064 l -0.3048,0.5588 0.2032,1.1176 -0.1524,2.1336 -0.3048,0.9652 q 0.0508,0.0508 0.0508,0.254 0,-0.1016 -0.1524,0.6604 0,0.0508 0.0508,0.2032 0,0.1524 0,0.254 0,0.5588 -0.3556,1.0668 l 0.1524,0.7112 q 0,0.3556 -0.0508,0.4572 l -0.0508,0.1524 q -0.1016,0.3048 -0.1016,0.6096 0,0.9652 0.2032,1.6256 -1.1176,0.2032 -1.27,0.2032 -0.4572,0 -0.762,-0.1016 l -0.1016,-0.0508 q -1.3208,-0.3048 -1.3208,-2.4384 0.0508,-0.254 0.0508,-0.7112 0,-0.4064 -0.1016,-1.1176 -0.1016,-0.762 -0.1016,-1.1176 0,-0.508 0.1524,-0.8636 l 0.2032,-2.0828 q -0.4064,-0.5588 -0.4064,-0.9144 0,-0.1016 0.1016,-0.4064 -0.2032,-0.4064 -0.2032,-0.6096 0,-0.4064 0.254,-0.6604 0,-0.4572 0.4064,-1.27 -0.1016,-0.4064 -0.1016,-0.8636 0.3556,0 0.3556,-0.3556 0,-0.1016 -0.1016,-0.3048 -0.1016,-0.254 -0.1016,-0.508 l 0.1524,0.2032 -0.2032,-0.4572 q 0,-0.9652 0.254,-1.6764 v -1.4732 l -0.254,-1.0668 0.254,-1.9812 -0.254,-1.4732 0.1016,-0.508 -0.762,0.0508 -0.5588,0.3048 -0.4064,-0.0508 v 0.2032 q -1.0668,0 -2.0828,-0.1524 l -0.1524,0.4064 -1.9812,-0.6604 -2.6416,-0.0508 -1.6764,0.4572 q -2.032,-1.7272 -2.032,-2.4892 0,-0.4572 0.1524,-0.9144 v 0.1524 l 1.1176,-0.9652 0.9652,0.0508 3.4036,0.6096 0.8636,-0.254 2.5908,0.0508 2.032,0.254 1.3208,-0.508 0.4572,-1.3208 2.032,0.508 0.1016,-0.1016 0.1016,0.1524 0.7112,0.8636 0.2032,0.0508 0.7112,-0.254 1.4732,0.3556 q 2.1844,-0.4064 2.5908,-0.4064 0.6096,0 1.27,0.254 0.1524,0 0.6096,0.0508 0.7112,-0.1016 0.9144,-0.1016 h 0.3556 l 1.7272,-0.2032 1.4732,0.254 0.2032,0.1016 0.762,-0.254 1.0668,0.254 2.54,-0.1016 1.1176,0.1524 z"
         style="stroke-width:0.5"
         id="path1270" />
      <path
         d="m 96.5136,68.38368 -0.6096,0.508 q 0.1524,0.2032 0.5588,0.7112 l -1.9304,1.2192 h -0.2032 q -0.254,0 -0.6604,-0.1524 l -0.6096,0.508 -0.8636,-0.1016 -0.9144,0.762 -0.8636,-0.508 -1.0668,0.3048 -1.016,0.6096 q -0.1016,-0.0508 -0.254,-0.0508 -0.4064,0 -0.4572,0.254 l -0.4064,1.6764 q 0.2032,0.3556 0.2032,0.6096 0,0.3556 -0.1524,0.762 l -0.1524,0.4064 0.2032,0.1016 q 0,0.8636 -0.4064,1.524 0.3048,0.7112 0.4064,1.1176 l -0.4572,0.3556 0.0508,1.8288 -0.4572,2.6416 -0.0508,0.508 q 0.1016,0.6096 0.1016,0.8128 v 0.254 l 0.2032,0.508 0.0508,0.9144 q -0.0508,0.254 -0.254,0.762 -0.0508,1.7272 -2.4892,1.8288 l -0.1016,-1.1176 -0.4064,-0.6604 -0.3048,-0.9144 v -1.778 l -0.3556,-1.0668 0.1524,-0.1016 -0.1524,-0.762 v -1.27 l 0.1524,-1.9812 -0.1016,-1.778 0.3048,-1.016 v -1.1684 q 0,-0.3556 0.1016,-0.9652 0.1524,-0.6096 0.1524,-0.9144 0,-0.508 -0.3048,-0.9652 l -0.1016,-0.1524 -0.1524,0.1016 -0.6604,-0.2032 q -0.9144,0.254 -1.7272,0.254 -0.5588,0 -0.8128,-0.0508 l -2.1844,0.6604 -2.3368,-0.254 q -0.9144,-0.1016 -1.27,-0.1016 -0.6604,0 -1.8288,0.3556 h -0.2032 l -1.1684,0.508 -0.8128,-0.5588 -1.27,0.254 -0.1524,-0.1016 -0.2032,0.1016 -1.016,-0.0508 -0.1016,0.4064 -1.4224,-0.5588 q -0.8636,0.1016 -1.27,0.1524 v 2.3368 l -0.1524,1.1684 0.254,0.9652 -0.4064,0.762 0.3556,0.7112 -0.3556,2.1844 0.2032,0.6604 -0.1016,1.2192 0.4572,1.016 -0.2032,0.4572 0.1016,0.6096 q -0.0508,1.1176 -1.27,1.1176 -2.0828,0 -2.0828,-3.7592 l -0.7112,-0.8636 -0.254,-0.6096 q 0,-0.6604 0.3048,-1.1176 l 0.1016,-0.8636 -0.1524,-0.508 -0.254,-3.9624 v -1.0668 l -0.1016,-0.1524 -1.016,-0.5588 -0.1524,-2.4892 1.4224,-0.8128 q 0.254,-0.8128 0.254,-2.032 0,-1.1684 -0.254,-1.9812 l 0.3048,0.1524 -0.0508,-0.7112 0.3048,-1.0668 -0.3048,-1.778 v -1.1684 l 0.3556,-1.778 1.9812,-1.0668 0.9652,0.7112 1.0668,0.3556 0.1524,1.1176 0.4572,0.6604 q -0.254,0.7112 -0.4572,1.4732 0.1524,0.8128 0.1524,1.7272 0,1.4224 -0.3556,2.794 l 0.4572,0.9652 -0.508,0.7112 v 0.6096 l 0.4572,0.1524 1.2192,-0.1524 0.8636,0.1016 1.3716,-0.1524 0.4064,0.1524 q 0.254,-0.0508 0.5588,-0.0508 0.2032,0 0.6096,0.1016 l 0.1016,0.0508 h 0.762 q 0.0508,0 0.762,-0.0508 0.762,-0.0508 1.524,-0.0508 l 0.8128,-0.508 0.762,0.4572 0.762,0.0508 0.254,0.0508 q 0.4064,-0.1016 0.6604,-0.1016 h 0.254 l 5.3848,-0.5588 0.762,0.0508 0.254,-0.1524 -0.254,-0.8636 0.254,-0.762 -0.3556,-2.0828 0.3556,-0.6604 -0.9144,-2.4384 -0.1016,-0.3556 -0.2032,-0.254 q 0.0508,-0.1016 0.2032,-0.4572 0.1016,-0.2032 0.1016,-0.2032 v -0.2032 q 0,-0.4064 0.8128,-0.762 l 0.508,-1.4224 1.4224,0.254 0.6096,0.3556 1.4224,-0.3048 v 0.7112 l 0.6096,-0.1524 v 2.3876 l -0.254,0.4064 0.4064,1.016 v 0.6604 l 0.254,0.8128 -0.4064,0.9652 0.1524,0.6604 -0.254,2.3368 v 0.3556 l 1.0668,-0.0508 1.9812,-0.4572 0.9652,0.1016 0.6096,-0.1016 h 1.1176 q 0.4064,-0.2032 0.8636,-0.2032 0.3048,0 0.762,0.2032 z"
         style="stroke-width:0.5"
         id="path1272" />
      <path
         d="m 104.74317,51.61968 q 0,0.6096 -0.8128,1.1176 v 0.1016 q -0.9652,1.1684 -1.6764,1.3208 l -0.762,0.9144 -0.508,0.6604 -1.168397,0.3048 -0.508,0.7112 -0.8128,0.4064 -1.3208,1.1684 -0.8128,-0.762 0.1524,-1.27 0.5588,-0.9144 q 0.0508,-0.7112 0.8128,-1.2192 v -0.2032 l 0.3048,-0.2032 0.0508,-0.762 0.8128,-0.2032 v -0.4572 l 0.6096,-0.1016 q 0.2032,-1.016 0.863597,-1.4732 l 0.1524,-0.1016 0.3048,-0.3048 0.4064,-1.2192 q 3.3528,0.8128 3.3528,2.4892 z m 5.1816,26.924 q 0,1.1684 -0.4064,1.4732 l -0.254,0.2032 -0.254,0.7112 -0.8128,0.254 q -0.3556,0.8128 -1.0668,1.27 l -0.4572,0.1524 -0.6604,0.7112 -0.6096,0.1524 q -0.3556,0.9144 -1.4732,0.9652 -0.1016,0.1524 -0.4572,0.6096 -0.762,0.508 -1.5748,0.6096 l -0.254,0.0508 -0.3556,0.4572 h -1.016 l -0.812797,0.6096 -2.0828,-1.524 -0.9652,-1.9812 -0.0508,-2.4892 -0.2032,-0.6096 0.6096,-4.4704 0.2032,-0.2032 q -0.1524,-0.762 -0.1524,-1.4732 0,-0.4572 0.3048,-1.8796 l 0.254,-1.1684 q -0.1016,-0.3048 -0.4064,-0.6604 l 0.3048,-0.9652 0.1016,-1.1684 0.1016,-0.1524 q -0.2032,-0.4572 -0.254,-1.016 0.0508,-0.1016 0.1016,-0.254 0.0508,-0.2032 0.0508,-0.3048 -0.1524,-0.4572 -0.1524,-0.8636 0,-1.2192 1.3716,-1.1176 l 0.6096,0.0508 q 0.6096,-0.3048 0.762,-0.3048 1.015997,0 1.371597,1.1176 v 0.2032 q 0.2032,0.6096 0.2032,1.1684 0,0.4572 -0.1016,0.6604 l -0.3556,2.54 0.3556,0.7112 q 0,0.9144 -0.6096,1.6256 l 0.2032,0.6096 -0.6604,1.9304 q -0.1016,1.27 -0.254,1.9304 v 1.27 l -0.304797,0.7112 0.0508,0.508 -0.1016,1.1684 0.1016,0.9144 0.761997,0.6096 0.6096,-0.1016 0.1016,-0.1524 0.4064,0.0508 0.6604,-0.2032 0.5588,-0.5588 0.2032,-0.3048 0.3556,-0.0508 0.1016,-0.254 0.1524,-0.2032 0.3048,0.2032 0.508,-0.508 0.3048,0.0508 0.1016,-0.3556 h 0.1016 l 0.1524,-0.4064 0.4572,-0.2032 0.9652,-0.4572 q 1.1684,-0.8128 2.286,-0.8128 h 0.2032 q 0.5588,0.3556 0.762,0.9144 z"
         style="stroke-width:0.5"
         id="path1274" />
      <path
         d="m 131.71793,81.79488 -0.6096,0.7112 -0.5588,1.3208 -0.4064,0.3048 -0.3556,0.7112 -1.016,0.1016 -0.6604,0.6604 h -1.016 l -0.6096,0.508 -0.5588,-0.1524 -0.6604,0.1524 v 0.4064 l -1.8796,-0.1524 -0.8128,0.0508 -0.6096,0.3048 -0.508,-0.3048 q 0.508,-0.0508 0.8128,-0.0508 -0.4064,0.0508 -2.4384,0.2032 l -0.1524,-0.0508 -0.4064,-0.0508 -0.6604,0.3556 q -0.3048,-0.2032 -1.1176,-0.4572 -1.1176,-0.1016 -1.4732,-0.1016 h -0.4064 q -0.3556,-0.0508 -0.762,-0.0508 -0.4064,0 -0.8128,0.2032 l -0.7112,-0.4572 -0.4064,-0.1016 q -0.1524,0 -0.5588,-0.1524 -1.8796,-0.2032 -1.8796,-3.1496 v -0.4572 l 0.9652,-0.7112 1.2192,-0.4572 0.9144,0.4572 h 0.7112 v 0.1524 q 0.508,0.2032 0.8128,0.8128 l 0.4064,0.0508 v 0.6604 l 0.6604,0.1524 0.1524,0.1016 6.5024,-0.4064 1.5748,-0.254 h 0.1524 l 0.1016,-0.254 0.7112,-0.1016 0.1016,-0.1524 q 1.0668,-0.1524 1.9812,-0.6096 l 0.0508,-0.254 q -0.0508,-0.0508 -0.2032,-0.3556 l -0.254,0.0508 -0.6604,-0.508 h -0.4572 l -0.254,-0.3556 0.1524,-0.2032 -0.5588,0.1016 -0.4064,-0.4572 q -0.1524,0.0508 -0.508,0.0508 -0.6604,0 -1.3208,-0.254 h -0.4572 l -0.3556,-0.1524 -0.7112,0.254 -0.4064,-0.4572 h -0.1524 l -0.7112,-0.5588 -1.5748,-0.6096 -0.508,-0.4064 -1.9304,-0.3556 -0.2032,-0.3556 -1.4224,-0.9144 -0.762,-1.6764 -0.6096,-0.8636 -0.2032,-2.6416 0.2032,-0.3048 q 0.1016,-1.1684 0.8128,-2.032 0.762,-0.4064 0.762,-1.1684 l 0.762,-0.1524 q 0.2032,-0.4064 0.8128,-0.762 l 0.762,-0.6096 3.2004,-1.2192 0.5588,-0.1524 1.016,-0.1016 1.6764,-0.4572 3.2004,0.2032 0.1016,0.254 q 0.4572,0.1524 1.016,0.8128 v 0.254 l 0.8128,0.508 -0.3556,1.2192 -0.1016,0.4572 q -0.3048,1.27 -1.4224,1.27 -0.9144,0 -1.3716,-0.8636 v -0.1524 l -0.6096,-0.0508 -0.7112,0.2032 -0.6604,-0.4572 -0.3556,0.254 q -0.6604,0 -1.2192,0.4064 -0.762,0 -1.4732,0.6096 h -0.6604 l -0.4572,0.3556 -0.7112,0.1524 -0.1016,0.1016 -0.3048,0.1524 -0.4572,0.4572 -0.1524,0.0508 -0.4572,0.7112 -0.5588,0.3048 q -0.2032,0.6604 -0.254,1.1176 0.0508,0.7112 0.1524,0.9652 0.1524,0.2032 0.7112,0.4572 v 0.254 l 0.6604,0.3556 q 0.8128,0.3048 1.2192,0.6604 h 1.016 l 0.6604,0.5588 1.1684,0.1524 0.4572,0.3048 1.9812,0.5588 0.254,0.5588 0.2032,-0.3556 q 0.6604,0 1.778,0.6096 l 0.9144,0.1524 0.1016,0.3556 h 0.8128 l 1.4224,0.8128 q 0.254,0.6604 1.1176,1.2192 l 0.5588,0.3556 -0.1524,0.6096 q 0.3556,0.508 0.3556,1.0668 z"
         style="stroke-width:0.5"
         id="path1276" />
    </g>
    <g
       aria-label="is a "
       id="text1250"
       style="font-weight:bold;font-size:50.8px;font-family:'Times New Roman';-inkscape-font-specification:'Times New Roman,  Bold';fill:#ff6600;fill-opacity:0.333333;stroke:#000080;stroke-width:0.499999">
      <path
         d="m 63.948347,78.101177 q 1.612305,0 2.728516,1.141016 1.116211,1.11621 1.116211,2.70371 0,1.5875 -1.141016,2.703711 -1.116211,1.116211 -2.703711,1.116211 -1.5875,0 -2.703711,-1.116211 -1.11621,-1.116211 -1.11621,-2.703711 0,-1.5875 1.11621,-2.70371 1.116211,-1.141016 2.703711,-1.141016 z M 67.421004,89.3377 v 18.38027 q 0,2.45567 0.570507,3.1502 0.570508,0.66973 2.232422,0.76894 v 0.89297 H 57.697566 v -0.89297 q 1.537891,-0.0496 2.282031,-0.89296 0.496094,-0.57051 0.496094,-3.02618 V 94.174614 q 0,-2.455664 -0.570508,-3.12539 -0.570507,-0.694532 -2.207617,-0.79375 V 89.3377 Z"
         style="stroke-width:0.5"
         id="path1263" />
      <path
         d="m 87.14073,88.692778 0.37207,7.912696 h -0.843359 q -1.513086,-3.522266 -3.150196,-4.81211 -1.612304,-1.289843 -3.224609,-1.289843 -1.016992,0 -1.736328,0.694531 -0.719336,0.669726 -0.719336,1.562695 0,0.669727 0.496094,1.289844 0.79375,1.016992 4.440039,3.497461 3.646289,2.455668 4.787304,4.191988 1.165821,1.71153 1.165821,3.84473 0,1.93477 -0.967383,3.79512 -0.967383,1.86035 -2.728516,2.85254 -1.761133,0.99218 -3.894336,0.99218 -1.661914,0 -4.440039,-1.04179 -0.74414,-0.27285 -1.016992,-0.27285 -0.818554,0 -1.364258,1.24023 h -0.818554 l -0.396875,-8.33437 h 0.843359 q 1.116211,3.27421 3.050977,4.91132 1.95957,1.63711 3.695898,1.63711 1.190625,0 1.934766,-0.71933 0.768945,-0.74414 0.768945,-1.78594 0,-1.19063 -0.744141,-2.05879 -0.74414,-0.86816 -3.323828,-2.6293 -3.795117,-2.62929 -4.911328,-4.01836 -1.637109,-2.033981 -1.637109,-4.489645 0,-2.678906 1.835547,-4.836914 1.860351,-2.182812 5.357812,-2.182812 1.885156,0 3.646289,0.917773 0.669727,0.372071 1.091406,0.372071 0.446485,0 0.719336,-0.173633 0.272852,-0.198438 0.868164,-1.066602 z"
         style="stroke-width:0.5"
         id="path1265" />
      <path
         d="m 117.74971,109.10704 q -4.2416,3.7455 -7.61504,3.7455 -1.98437,0 -3.29902,-1.28984 -1.31465,-1.31465 -1.31465,-3.27422 0,-2.6541 2.28203,-4.7625 2.28204,-2.1332 9.94668,-5.655467 v -2.331641 q 0,-2.629297 -0.29765,-3.299023 -0.27285,-0.694532 -1.0666,-1.190625 -0.79375,-0.520899 -1.78594,-0.520899 -1.61231,0 -2.6541,0.719336 -0.64492,0.446485 -0.64492,1.041797 0,0.520898 0.69453,1.289844 0.94257,1.066601 0.94257,2.058789 0,1.215429 -0.91777,2.083593 -0.89297,0.84336 -2.35644,0.84336 -1.5627,0 -2.6293,-0.942578 -1.0418,-0.942578 -1.0418,-2.207617 0,-1.785938 1.41387,-3.398243 1.41387,-1.637109 3.94394,-2.505273 2.53008,-0.868164 5.2586,-0.868164 3.29902,0 5.20898,1.413867 1.93477,1.389063 2.50528,3.026172 0.34726,1.041797 0.34726,4.787305 v 9.004097 q 0,1.5875 0.12402,2.00918 0.12403,0.39688 0.37208,0.59532 0.24804,0.19843 0.5705,0.19843 0.64492,0 1.31465,-0.91777 l 0.74414,0.59531 q -1.24023,1.83555 -2.57969,2.67891 -1.31464,0.81855 -3.00136,0.81855 -1.98438,0 -3.10059,-0.91777 -1.11621,-0.94258 -1.36426,-2.82773 z m 0,-1.81075 v -7.763863 q -3.00136,1.761133 -4.46484,3.770313 -0.96738,1.33945 -0.96738,2.70371 0,1.14102 0.81855,2.00918 0.62012,0.66973 1.73633,0.66973 1.24023,0 2.87734,-1.38907 z"
         style="stroke-width:0.5"
         id="path1267" />
    </g>
    <g
       aria-label="mess"
       id="text1254"
       style="font-weight:bold;font-size:50.8px;font-family:'Times New Roman';-inkscape-font-specification:'Times New Roman,  Bold';fill:#ff6600;fill-opacity:0.333333;stroke:#000080;stroke-width:0.499999">
      <path
         d="m 86.268809,125.05185 q -1.778,2.032 -4.318,4.572 -2.413,2.54 -5.206999,4.826 -2.794,2.286 -5.842,3.81 -2.921,1.524 -5.715,1.524 -2.54,0 -3.556,-1.016 -1.016,-1.016 -1.016,-3.175 0,-1.397 1.397,-4.572 1.524,-3.175 3.302,-6.604 1.778,-3.429 3.175,-6.477 1.524,-3.175 1.524,-4.445 0,-0.762 -0.635,-0.762 -1.651,0.889 -3.81,2.667 -2.032,1.651 -4.064,3.683 -2.032,2.032 -3.81,3.937 -1.651,1.905 -2.54,3.175 -0.889,1.27 -1.778,3.048 -0.889,1.778 -1.778,3.429 -0.762,1.651 -1.651,2.794 -0.762,1.143 -1.397,1.143 -0.635,0 -1.143,-0.635 -0.508,-0.635 -0.508,-1.27 0,-0.381 0.381,-1.27 0.381,-1.016 1.397,-2.413 1.651,-2.286 2.921,-4.826 1.397,-2.54 2.286,-4.699 1.016,-2.159 1.524,-3.683 0.508,-1.524 0.508,-1.778 0,-1.016 -0.508,-1.016 -0.762,0 -2.667,1.651 -1.778,1.524 -3.937,3.81 -2.159,2.286 -4.318,4.826 -2.032,2.54 -3.429,4.572 -1.778,2.667 -3.048,4.699 -1.27,2.032 -1.905,2.032 -1.016,0 -1.27,-0.889 -0.127,-0.889 -0.127,-1.778 0,-1.016 0.508,-1.651 3.429,-5.461 6.731,-11.176 3.302,-5.715 6.604,-11.303 0.635,-1.143 1.397,-1.143 0.635,0 1.143,0.762 0.508,0.635 0.508,1.27 -0.889,2.54 -3.048,6.223 -2.159,3.683 -3.81,6.731 5.08,-5.842 8.509,-8.763 3.429,-3.048 5.588,-3.048 1.397,0 1.397,1.905 0,1.27 -1.143,3.937 -1.143,2.54 -2.032,4.191 -0.254,0.508 -0.127,0.508 0.254,-0.127 0.508,-0.381 1.524,-1.778 3.429,-3.683 2.032,-2.032 4.191,-3.81 2.286,-1.778 4.445,-3.302 2.286,-1.524 4.191,-2.413 1.905,0 1.905,1.778 0,0.381 -0.127,0.762 -0.127,0.381 -0.381,0.889 -0.635,1.397 -2.413,4.572 -1.651,3.175 -3.429,6.858 -1.778,3.556 -3.175,6.985 -1.27,3.302 -1.27,5.08 0,2.54 2.413,2.54 2.286,0 4.826,-1.524 2.54,-1.524 5.08,-3.683 2.539999,-2.159 4.698999,-4.445 2.159,-2.413 3.683,-4.191 0.508,-0.762 1.016,-0.635 0.508,0.127 -0.254,1.27 z"
         style="font-family:Zapfino;-inkscape-font-specification:'Zapfino Bold';stroke-width:0.5"
         id="path1256" />
      <path
         d="m 141.00577,125.94085 q -4.064,4.826 -8.636,6.985 -4.445,2.032 -7.493,2.794 -4.445,1.016 -8.89,1.397 -4.445,0.381 -8.382,0.381 -3.683,0 -3.683,-0.889 0,-0.254 1.016,-1.143 1.016,-0.889 2.286,-1.143 1.27,0 2.794,0.127 1.524,0.127 3.175,0.127 1.143,0 2.413,-0.381 1.397,-0.381 2.54,-1.397 1.143,-1.016 1.778,-2.794 0.762,-1.778 0.762,-4.572 0,-1.397 -0.127,-2.921 -0.127,-1.524 -0.635,-2.921 -7.366,8.382 -15.621,12.827 -8.255004,4.318 -15.113003,4.318 -1.016,0 -2.286,-0.127 -1.143,-0.127 -2.286,-0.635 -1.016,-0.635 -1.778,-1.651 -0.635,-1.016 -0.635,-2.794 0,-2.159 1.778,-6.096 1.778,-3.937 4.826,-7.747 3.048,-3.937 6.984999,-6.731 3.937,-2.921 8.255004,-2.921 1.27,0 1.778,0.889 0.508,0.762 0.508,1.905 0,0.762 -0.508,2.032 -0.381,1.27 -1.524,2.54 -1.143,1.143 -2.921,2.159 -1.778004,0.889 -4.445004,0.889 -2.539999,0 -3.809999,-1.397 -0.254,-0.254 -0.635,0.127 -0.508,0.508 -1.397,1.905 -0.889,1.397 -1.778,3.302 -0.889,1.905 -1.524,4.064 -0.635,2.032 -0.635,4.191 0,4.572 4.191,4.572 1.397,0 4.064,-0.381 2.793999,-0.508 6.350003,-2.159 3.683,-1.778 8.128,-5.08 4.445,-3.302 9.144,-8.89 0.635,-0.889 0.635,-1.397 0,-2.032 1.27,-3.937 1.27,-1.905 3.048,-3.429 1.905,-1.524 3.81,-2.413 2.032,-0.889 3.556,-0.889 0.762,0 1.397,0.508 0.762,0.508 0.762,1.524 0,0.762 -0.127,1.143 -0.381,0.381 -0.889,0.889 -0.508,0.508 -0.889,0.508 -0.254,0 -0.762,-1.143 -0.508,-1.143 -1.905,-1.143 -2.54,0 -3.81,1.524 -1.27,1.524 -1.27,4.064 0,1.778 0.508,4.572 0.508,2.794 0.508,5.334 0,2.54 -1.778,5.207 -1.778,2.667 -4.318,3.81 -1.016,0.508 -0.889,0.889 0.127,0.254 2.667,0.254 4.953,0 10.287,-2.286 5.334,-2.286 9.652,-6.985 0.635,-0.635 0.889,-0.254 0.254,0.254 -0.381,0.889 z m -39.37,-13.97 q 0,-0.508 -0.254,-1.27 -0.127,-0.762 -1.27,-0.762 -0.762004,0 -1.778004,0.635 -1.016,0.635 -2.032,1.651 -1.015999,0.889 -1.777999,1.905 -0.635,1.016 -0.889,1.778 0,1.27 2.032,1.27 1.777999,0 3.809999,-1.27 2.159004,-1.397 2.159004,-3.937 z"
         style="font-family:Zapfino;-inkscape-font-specification:'Zapfino Bold';stroke-width:0.5"
         id="path1258" />
      <path
         d="m 156.49975,112.73285 q -0.381,0.635 -0.635,0.127 -0.762,-1.651 -3.175,-1.651 -1.778,0 -3.556,1.016 -1.778,1.016 -1.778,3.048 0,1.016 0.635,2.032 0.635,1.016 1.778,2.667 1.016,1.524 1.905,3.048 0.889,1.524 0.889,3.175 0,3.302 -1.524,5.461 -1.524,2.032 -3.683,3.302 -2.032,1.27 -4.191,1.651 -2.159,0.508 -3.429,0.508 -7.747,0 -8.509,-5.207 0.635,-0.381 1.397,-0.889 0.889,-0.635 1.27,-1.143 0.254,0 0.381,0.508 0.635,2.286 2.413,3.937 1.778,1.651 4.191,1.651 1.016,0 2.413,-0.127 1.397,-0.254 2.54,-0.889 1.27,-0.762 2.159,-2.032 0.889,-1.27 0.889,-3.429 0,-1.651 -0.635,-3.048 -0.635,-1.397 -1.397,-2.54 -0.762,-1.27 -1.524,-2.54 -0.762,-1.27 -0.762,-2.794 0,-1.524 1.016,-3.302 1.143,-1.778 2.794,-3.175 1.651,-1.524 3.556,-2.54 2.032,-1.016 3.937,-1.016 2.032,0 2.032,1.27 -0.381,0.635 -0.762,1.524 -0.381,0.762 -0.635,1.397 z"
         style="font-family:Zapfino;-inkscape-font-specification:'Zapfino Bold';stroke-width:0.5"
         id="path1260" />
    </g>
    <rect
       style="fill:#ff6600;fill-opacity:0.333333;stroke:#000080;stroke-width:0.499999"
       id="rect1339"
       width="154.72887"
       height="96.510178"
       x="14.456989"
       y="46.496807"
       rx="21.162996"
       ry="10.5826" />
    <path
       sodipodi:type="spiral"
       style="fill:none;fill-rule:evenodd;stroke:#000000;stroke-width:0.264583"
       id="path1406"
       sodipodi:cx="28.913979"
       sodipodi:cy="107.45059"
       sodipodi:expansion="1"
       sodipodi:revolution="3"
       sodipodi:radius="32.515171"
       sodipodi:argument="-18.777391"
       sodipodi:t0="0"
       d="m 28.913979,107.45059 c 1.626015,0.11755 0.64377,2.24983 -0.195367,2.70255 -2.274013,1.22683 -4.694591,-0.95123 -5.209724,-3.09328 -0.921453,-3.83163 2.364973,-7.217201 5.991192,-7.716904 5.321621,-0.733333 9.785975,3.787564 10.22408,8.889104 0.583924,6.79955 -5.211933,12.37271 -11.787017,12.73126 -8.274071,0.4512 -14.968375,-6.63683 -15.238436,-14.68493 -0.32708,-9.747332 8.061944,-17.569156 17.582841,-17.745615 11.220047,-0.20795 20.173136,9.487194 20.252793,20.480755 0.09197,12.6925 -10.912532,22.77925 -23.378666,22.75997 C 12.990861,131.75159 1.7688138,119.43557 1.8885261,105.49692 2.0228252,89.859869 15.651911,77.501361 31.063016,77.722594 48.172264,77.968205 61.668092,92.91147 61.344522,109.795" />
    <path
       sodipodi:type="star"
       style="fill:#ff6600;fill-opacity:0.333333;stroke:#000080;stroke-width:0.499999"
       id="path1408"
       inkscape:flatsided="false"
       sodipodi:sides="5"
       sodipodi:cx="149.25865"
       sodipodi:cy="97.682358"
       sodipodi:r1="40.972599"
       sodipodi:r2="20.4863"
       sodipodi:arg1="-0.60916347"
       sodipodi:arg2="0.019155065"
       inkscape:rounded="0"
       inkscape:randomized="0"
       d="m 182.86138,74.238591 -13.12019,23.836159 12.19762,24.32118 -26.72389,-5.11226 -19.36155,19.11628 -3.39608,-26.99571 -24.16372,-12.506667 24.625,-11.572003 4.42755,-26.845833 18.61517,19.843822 z"
       inkscape:transform-center-x="3.6811767"
       inkscape:transform-center-y="-0.24251307" />
  </g>
</svg>
