<?xml version="1.0" encoding="UTF-8" standalone="no"?>
<!-- Created with Inkscape (http://www.inkscape.org/) -->

<svg
   width="210mm"
   height="297mm"
   viewBox="0 0 210 297"
   version="1.1"
   id="svg5"
   inkscape:version="1.2.1 (9c6d41e, 2022-07-14)"
   sodipodi:docname="difficult.svg"
   xmlns:inkscape="http://www.inkscape.org/namespaces/inkscape"
   xmlns:sodipodi="http://sodipodi.sourceforge.net/DTD/sodipodi-0.dtd"
   xmlns="http://www.w3.org/2000/svg"
   xmlns:svg="http://www.w3.org/2000/svg">
  <sodipodi:namedview
     id="namedview7"
     pagecolor="#ffffff"
     bordercolor="#111111"
     borderopacity="1"
     inkscape:showpageshadow="0"
     inkscape:pageopacity="0"
     inkscape:pagecheckerboard="1"
     inkscape:deskcolor="#d1d1d1"
     inkscape:document-units="mm"
     showgrid="false"
     inkscape:zoom="0.85116564"
     inkscape:cx="364.79386"
     inkscape:cy="397.1025"
     inkscape:window-width="1800"
     inkscape:window-height="1126"
     inkscape:window-x="0"
     inkscape:window-y="43"
     inkscape:window-maximized="0"
     inkscape:current-layer="layer1" />
  <defs
     id="defs2">
    <rect
       x="16.239125"
       y="16.239125"
       width="722.64108"
       height="898.56493"
       id="rect406" />
  </defs>
  <g
     inkscape:label="Layer 1"
     inkscape:groupmode="layer"
     id="layer1">
    <path
       d="m 198.64749,41.270204 -0.508,0.6604 0.4064,1.219199 -0.6604,0.762 -0.254,1.0668 -0.1524,0.254 0.1016,0.254 q 0,0.7112 -0.3556,1.0668 l -0.1016,0.1524 v 0.2032 q 0.1524,0.3556 0.1524,0.6604 0,0.254 -0.0508,0.3556 l 0.0508,0.2032 -0.2032,0.5588 0.1524,0.6096 -0.4064,0.4064 0.1524,0.7112 0.3048,0.3556 -0.4572,0.4064 v 0.8128 l -0.3556,0.8128 0.254,0.8128 -0.3048,0.4064 0.508,0.3556 -0.7112,1.1684 -0.0508,0.1524 0.508,0.1016 -0.3556,1.1684 v 0.2032 q 0,0.3556 -0.0508,0.5588 l 0.0508,0.1524 0.8128,0.1016 0.6604,1.016 -0.3556,0.762 0.5588,-0.0508 q 0.3048,0.6096 0.3556,1.0668 l -0.762,0.762 q -0.3556,0.3556 -1.016,0.7112 l -0.8636,0.4572 -0.254,-0.254 -0.508,0.3048 -1.5748,-1.8288 v -0.8636 q -0.3048,-1.016 -0.3048,-1.8796 v -0.3048 l -0.3048,-2.9972 0.4064,-2.1336 -0.3048,-1.2192 -0.8636,1.4224 -0.4572,1.3208 -0.4064,0.2032 -0.7112,1.1176 -1.27,1.1684 -0.3556,0.6096 -1.1176,0.9652 -0.254,0.6604 -1.6256,1.016 -1.7272,1.9304 -0.9652,0.2032 -0.6604,0.508 q -1.27,-0.0508 -1.9304,-0.9652 -2.286,-1.1176 -2.3876,-3.2004 l 0.254,-0.1524 -0.0508,-0.3048 -0.0508,-0.6096 -0.3048,-0.6604 0.3048,-0.7112 0.1016,-1.0668 0.3556,-1.6764 q 0,-0.0508 0,-0.2032 -0.0508,-0.1016 -0.0508,-0.2032 0,-0.2032 0.1016,-0.508 -0.0508,-0.1016 -0.0508,-0.4064 0,-0.3556 0.3048,-1.1684 l 0.3556,-0.1524 q -0.3048,-0.254 -0.3048,-0.5588 0,-0.2032 0.0508,-0.3048 -0.0508,-0.1524 -0.0508,-0.3556 0,-0.6096 0.6096,-0.9144 0.1524,-0.508 0.5588,-1.016 l -0.254,-0.4064 0.6096,-0.762 v -0.2032 q 0,-0.9652 0.6604,-1.778 l -0.0508,-0.9144 0.2032,-0.2032 q 0,-0.0508 0,-0.1524 -0.0508,-0.101599 -0.0508,-0.152399 0,-0.3048 0.2032,-0.508 v -0.3048 q 0.2032,-0.508 1.0668,-1.524 0.8636,-1.016 1.27,-1.778 l 0.254,0.254 0.5588,-0.254 0.254,-0.1016 1.6764,-0.762 3.9116,0.2032 v 0.3556 l 1.2192,0.254 q 1.1684,0 1.524,0.762 0,-0.1524 0.0508,-0.3556 0,-0.1524 0,-0.2032 l 1.0668,0.9652 0.9652,0.2032 1.8288,-0.4572 0.6604,1.27 z m -4.826,2.641599 -0.2032,-0.3556 -0.4064,-0.1016 -1.5748,-1.269999 -1.016,-0.1524 h -0.8128 l -0.1016,-0.1016 -0.4064,0.1524 -0.4572,-0.254 h -1.3208 l 0.1524,0.2032 -1.1684,0.4064 -0.2032,0.254 -0.1524,0.0508 q -0.9144,0.761999 -1.27,1.269999 l -0.3556,1.2192 -0.2032,0.4572 0.508,0.7112 -0.8636,0.6604 0.1016,0.2032 q -0.5588,0.9652 -0.5588,1.8796 l -0.4064,0.508 v 0.9144 l -0.4064,0.4572 -0.1016,0.4572 -0.1524,0.1016 v 0.7112 l -0.1524,0.254 q 0,0.6096 -0.1016,0.9652 l 0.1016,0.254 -0.4572,0.9652 0.2032,0.3048 -0.3556,0.508 0.3556,0.9652 -0.5588,0.7112 0.1016,0.9652 v 0.1524 l 0.2032,0.1016 0.254,-0.0508 q 0.254,-0.254 0.508,-0.4572 l -0.1016,-0.4064 0.7112,-0.1016 0.1524,-0.3556 2.9972,-2.4384 0.3048,-0.1016 0.3556,-0.8636 q 0.3048,-0.1016 0.8636,-0.4064 l 0.3048,-0.8128 h 0.4064 l -0.1524,-0.8636 0.7112,-0.1016 q 0.1016,-0.2032 0.3048,-0.508 0.254,-0.3048 0.508,-0.5588 l 2.5908,-3.4544 0.4064,-0.762 -0.0508,-0.2032 0.3556,-0.5588 0.1016,-0.5588 0.4572,-0.4064 z"
       id="path626"
       style="font-weight:bold;font-size:192px;font-family:'Bradley Hand';-inkscape-font-specification:'Bradley Hand, Bold';white-space:pre;fill:#ff6600;fill-opacity:0.333333;stroke:#000080;stroke-width:0.499999" />
  </g>
</svg>
