<?xml version="1.0" encoding="UTF-8" standalone="no"?>
<!-- Created with Inkscape (http://www.inkscape.org/) -->

<svg
   width="210mm"
   height="297mm"
   viewBox="0 0 210 297"
   version="1.1"
   id="svg1123"
   inkscape:version="1.2.1 (9c6d41e, 2022-07-14)"
   sodipodi:docname="topologize.svg"
   xmlns:inkscape="http://www.inkscape.org/namespaces/inkscape"
   xmlns:sodipodi="http://sodipodi.sourceforge.net/DTD/sodipodi-0.dtd"
   xmlns="http://www.w3.org/2000/svg"
   xmlns:svg="http://www.w3.org/2000/svg">
  <sodipodi:namedview
     id="namedview1125"
     pagecolor="#ffffff"
     bordercolor="#111111"
     borderopacity="1"
     inkscape:showpageshadow="0"
     inkscape:pageopacity="0"
     inkscape:pagecheckerboard="1"
     inkscape:deskcolor="#d1d1d1"
     inkscape:document-units="mm"
     showgrid="false"
     inkscape:zoom="1.416999"
     inkscape:cx="309.45683"
     inkscape:cy="250.52947"
     inkscape:window-width="1800"
     inkscape:window-height="1098"
     inkscape:window-x="0"
     inkscape:window-y="71"
     inkscape:window-maximized="0"
     inkscape:current-layer="layer1" />
  <defs
     id="defs1120" />
  <g
     inkscape:label="Layer 1"
     inkscape:groupmode="layer"
     id="layer1">
    <g
       aria-label="Topo"
       id="text1454"
       style="font-weight:bold;font-size:31.75px;font-family:Zapfino;-inkscape-font-specification:'Zapfino Bold';fill:#ff6600;fill-opacity:0.333333;stroke:#000080;stroke-width:0.499999">
      <path
         d="m 19.578803,64.676084 -2.526977,2.418457 q -0.356567,-1.209228 -0.356567,-2.371948 0,-4.263306 3.55017,-6.898804 2.651001,-1.968872 7.30188,-1.968872 h 9.255249 q 5.751587,0 5.751587,-3.550171 0,-1.240234 -0.852661,-2.294433 l 1.953369,-1.860352 q 0.682129,0.930176 0.682129,2.387451 0,3.054077 -2.759522,5.13147 -2.744018,2.06189 -6.790283,2.06189 h -4.309814 l -1.16272,10.47998 -0.186035,1.720825 q -0.26355,2.201416 -0.961182,3.178101 -0.682129,0.976684 -2.651001,1.90686 l 4.511353,0.232544 -1.860352,1.79834 -7.565429,-0.341065 1.999877,-1.922363 1.68982,0.186035 q 1.875854,-1.193725 2.325439,-4.883423 l 0.15503,-1.503784 1.209228,-10.85205 h -2.635498 q -6.495727,0 -6.495727,4.294311 0,1.302246 0.728637,2.651001 z"
         style="font-weight:100;font-family:'Apple Chancery';-inkscape-font-specification:'Apple Chancery Thin';stroke-width:0.5"
         id="path1636" />
      <path
         d="m 33.191198,76.549271 q -3.488159,0 -3.488159,-4.619873 0,-3.720704 2.728516,-7.162354 2.728515,-3.457153 5.658569,-3.457153 3.534668,0 3.534668,4.619873 0,3.736206 -2.728516,7.177856 -2.728515,3.441651 -5.705078,3.441651 z m 1.875855,-1.736328 q 1.782837,0 2.976562,-1.984375 1.209229,-1.984375 1.209229,-4.945435 0,-4.836914 -3.007569,-4.836914 -1.767333,0 -2.976562,1.999878 -1.193726,1.984375 -1.193726,4.929931 0,4.836915 2.992066,4.836915 z"
         style="font-weight:100;font-family:'Apple Chancery';-inkscape-font-specification:'Apple Chancery Thin';stroke-width:0.5"
         id="path1638" />
      <path
         d="m 46.027624,76.33223 -0.124023,1.224731 q -0.480591,4.805908 -3.472657,8.216553 -2.992065,3.410644 -6.728271,3.410644 -0.775147,0 -1.488281,-0.186035 l 2.247925,-2.232422 q 0.883667,0.26355 1.674316,0.26355 4.619873,0 5.333008,-7.193359 l 1.612304,-16.076538 q -0.728637,0.542602 -1.565795,1.255737 -1.023194,0.868164 -1.79834,1.364258 l 0.124023,-1.240235 q 2.619995,-1.550293 5.751587,-4.433838 l -0.713135,7.177857 q 1.643311,-2.883545 3.689698,-4.728394 2.046386,-1.844848 3.596679,-1.844848 2.232422,0 2.232422,3.81372 0,4.542359 -2.930054,7.890992 -2.930053,3.33313 -6.914306,3.33313 z m 0.232544,-2.309937 q 1.255737,0.79065 2.837036,0.79065 2.123902,0 3.441651,-2.480469 1.333252,-2.480469 1.333252,-6.433716 0,-2.309937 -1.255738,-2.309937 -1.37976,0 -3.271118,2.108399 -2.526977,2.80603 -2.914551,6.650757 z"
         style="font-weight:100;font-family:'Apple Chancery';-inkscape-font-specification:'Apple Chancery Thin';stroke-width:0.5"
         id="path1640" />
      <path
         d="m 61.049963,76.549271 q -3.488159,0 -3.488159,-4.619873 0,-3.720704 2.728515,-7.162354 2.728516,-3.457153 5.65857,-3.457153 3.534668,0 3.534668,4.619873 0,3.736206 -2.728516,7.177856 -2.728516,3.441651 -5.705078,3.441651 z m 1.875854,-1.736328 q 1.782837,0 2.976563,-1.984375 1.209229,-1.984375 1.209229,-4.945435 0,-4.836914 -3.007569,-4.836914 -1.767334,0 -2.976562,1.999878 -1.193726,1.984375 -1.193726,4.929931 0,4.836915 2.992065,4.836915 z"
         style="font-weight:100;font-family:'Apple Chancery';-inkscape-font-specification:'Apple Chancery Thin';stroke-width:0.5"
         id="path1642" />
    </g>
    <g
       aria-label="logize"
       id="text1462"
       style="font-weight:bold;font-size:28.2223px;font-family:'.Zither Malayalam';-inkscape-font-specification:'.Zither Malayalam Bold';fill:#ff6600;fill-opacity:0.333333;stroke:#000080;stroke-width:0.499999">
      <path
         d="M 36.922317,97.635506 H 34.111112 V 77.130241 l 1.998161,-0.799264 h 0.813044 z"
         style="font-family:'Telugu MN';-inkscape-font-specification:'Telugu MN Bold';stroke-width:0.5"
         id="path1623" />
      <path
         d="m 48.373846,97.938675 q -1.62609,0 -2.990351,-0.564997 -1.364262,-0.564998 -2.356452,-1.529627 -0.99219,-0.97841 -1.557187,-2.273769 -0.551217,-1.30914 -0.551217,-2.797425 0,-1.557188 0.551217,-2.921449 0.564997,-1.378042 1.557187,-2.397793 0.99219,-1.019751 2.356452,-1.598529 1.364261,-0.592558 2.990351,-0.592558 1.612309,0 2.96279,0.537436 1.364262,0.537437 2.356452,1.474505 0.99219,0.937069 1.543407,2.204867 0.564997,1.254019 0.564997,2.700963 0,1.598528 -0.564997,3.017912 -0.551217,1.405602 -1.543407,2.466695 -0.99219,1.047312 -2.356452,1.66743 -1.350481,0.606339 -2.96279,0.606339 z m 0.537436,-1.033532 q 0.826826,0 1.515847,-0.427193 0.689021,-0.427193 1.185116,-1.143774 0.496095,-0.730363 0.771703,-1.681212 0.275609,-0.950849 0.275609,-2.011941 0,-1.529626 -0.261828,-2.866327 -0.261828,-1.336701 -0.854386,-2.328891 -0.592559,-0.99219 -1.543407,-1.557188 -0.950849,-0.578777 -2.315111,-0.578777 -0.702801,0 -1.364262,0.413412 -0.66146,0.399633 -1.171335,1.102434 -0.496095,0.702801 -0.799265,1.65365 -0.303169,0.937069 -0.303169,1.998161 0,1.543407 0.31695,2.893888 0.33073,1.350481 0.950849,2.356452 0.633899,1.005971 1.529626,1.598529 0.909508,0.578777 2.067063,0.578777 z"
         style="font-family:'Telugu MN';-inkscape-font-specification:'Telugu MN Bold';stroke-width:0.5"
         id="path1625" />
      <path
         d="m 73.068357,84.268499 v 1.185116 h -2.673402 q 0.399632,0.564997 0.64768,1.295359 0.261828,0.716582 0.261828,1.419383 0,1.102434 -0.482315,1.998161 -0.482315,0.895727 -1.350481,1.543407 -0.854386,0.64768 -2.053282,1.005971 -1.198897,0.34451 -2.645841,0.34451 -0.537436,0 -1.102434,-0.08268 -0.551216,-0.08268 -0.964629,-0.220487 -0.399632,0.33073 -0.675241,0.771704 -0.275608,0.427193 -0.275608,0.868166 0,0.427193 0.454754,0.675241 0.468534,0.248047 1.32292,0.289388 l 5.208999,0.234268 q 1.254018,0.05512 2.080843,0.303169 0.840606,0.234267 1.336701,0.64768 0.496095,0.399632 0.702801,0.950848 0.206707,0.551217 0.206707,1.240238 0,1.226458 -0.578778,2.218651 -0.564997,1.00597 -1.63987,1.70877 -1.074873,0.7028 -2.63206,1.08865 -1.543407,0.38585 -3.500227,0.38585 -1.750113,0 -3.059253,-0.2067 -1.30914,-0.20671 -2.177306,-0.59256 -0.868167,-0.37207 -1.29536,-0.90951 -0.427193,-0.52365 -0.427193,-1.18511 0,-0.57878 0.289389,-1.11622 0.289389,-0.523654 0.744143,-1.019749 0.454754,-0.482315 1.00597,-0.937069 0.551217,-0.454754 1.088654,-0.868166 -0.385852,-0.124024 -0.730363,-0.289389 -0.33073,-0.179146 -0.578777,-0.399632 -0.248048,-0.220487 -0.385852,-0.468535 -0.137804,-0.261828 -0.137804,-0.551216 0,-0.427193 0.220486,-0.881947 0.234268,-0.468535 0.620119,-0.881947 0.399633,-0.427193 0.909508,-0.771704 0.523656,-0.358291 1.116214,-0.564997 -1.419383,-0.606338 -2.232428,-1.681211 -0.799264,-1.088653 -0.799264,-2.494256 0,-1.033532 0.468534,-1.95682 0.482315,-0.923288 1.32292,-1.612309 0.840606,-0.689021 1.95682,-1.088653 1.129994,-0.399632 2.439134,-0.399632 0.633899,0 1.240238,0.08268 0.620119,0.08268 1.143775,0.220487 0.537436,0.137804 0.937068,0.31695 0.413413,0.179145 0.64768,0.385852 z M 61.754632,97.525262 q -0.31695,0.234267 -0.551217,0.523656 -0.234267,0.289389 -0.399632,0.606339 -0.165365,0.316949 -0.248048,0.633899 -0.08268,0.33073 -0.08268,0.620119 0,0.468535 0.33073,0.895725 0.33073,0.4272 0.99219,0.75793 0.66146,0.33073 1.653651,0.52365 1.00597,0.19293 2.328891,0.19293 1.405602,0 2.508036,-0.22049 1.116214,-0.22049 1.887917,-0.59256 0.785484,-0.35829 1.185117,-0.81304 0.413412,-0.44098 0.413412,-0.89573 0,-0.468534 -0.248047,-0.813044 -0.234268,-0.344511 -0.689021,-0.564998 -0.454754,-0.220486 -1.102434,-0.33073 -0.64768,-0.110243 -1.460724,-0.110243 -1.019752,0 -2.053283,-0.05512 -1.033531,-0.04134 -1.929259,-0.110243 -0.895727,-0.05512 -1.570968,-0.137804 -0.67524,-0.0689 -0.964629,-0.110244 z m 3.486446,-5.195218 q 0.592558,0 1.143775,-0.261828 0.551217,-0.275608 0.964629,-0.744143 0.427193,-0.468534 0.675241,-1.088653 0.248048,-0.633899 0.248048,-1.364261 0,-1.033532 -0.289389,-1.915479 -0.275609,-0.895727 -0.757923,-1.543407 -0.482315,-0.66146 -1.129995,-1.033531 -0.64768,-0.372071 -1.364261,-0.372071 -0.702802,0 -1.226458,0.289388 -0.509875,0.289389 -0.840605,0.813045 -0.33073,0.509876 -0.496095,1.212677 -0.151585,0.689021 -0.151585,1.488285 0,0.950849 0.234267,1.777675 0.234267,0.826825 0.66146,1.446944 0.427193,0.606338 1.019751,0.950849 0.592558,0.34451 1.30914,0.34451 z"
         style="font-family:'Telugu MN';-inkscape-font-specification:'Telugu MN Bold';stroke-width:0.5"
         id="path1627" />
      <path
         d="m 75.893343,84.061792 1.9706,-0.799264 h 0.813045 v 14.372978 h -2.783645 z m -0.220487,-5.939361 q 0,-0.33073 0.124024,-0.620119 0.124024,-0.289388 0.344511,-0.509875 0.220486,-0.220487 0.509875,-0.344511 0.289389,-0.124023 0.620119,-0.124023 0.33073,0 0.620119,0.124023 0.289389,0.124024 0.509876,0.344511 0.220486,0.220487 0.34451,0.509875 0.124024,0.289389 0.124024,0.620119 0,0.33073 -0.124024,0.620119 -0.124024,0.289389 -0.34451,0.509876 -0.220487,0.220486 -0.509876,0.34451 -0.289389,0.124024 -0.620119,0.124024 -0.33073,0 -0.620119,-0.124024 -0.289389,-0.124024 -0.509875,-0.34451 -0.220487,-0.220487 -0.344511,-0.509876 -0.124024,-0.289389 -0.124024,-0.620119 z"
         style="font-family:'Telugu MN';-inkscape-font-specification:'Telugu MN Bold';stroke-width:0.5"
         id="path1629" />
      <path
         d="M 81.625998,96.905143 91.768387,84.709472 H 81.625998 v -1.185116 h 14.12493 v 0.606338 L 85.374272,96.45039 h 10.376656 v 1.185116 h -14.12493 z"
         style="font-family:'Telugu MN';-inkscape-font-specification:'Telugu MN Bold';stroke-width:0.5"
         id="path1631" />
      <path
         d="m 104.5015,97.938675 q -1.43317,0 -2.70097,-0.537436 -1.25402,-0.537437 -2.191084,-1.460725 -0.937068,-0.923288 -1.488285,-2.163526 -0.537436,-1.254018 -0.537436,-2.659621 0,-1.694991 0.496095,-3.128155 0.496095,-1.446944 1.405603,-2.494256 0.909507,-1.047312 2.177307,-1.63987 1.28158,-0.592558 2.85255,-0.592558 1.37804,0 2.53559,0.496095 1.15756,0.482315 1.98438,1.30914 0.84061,0.813045 1.29536,1.887917 0.46854,1.074873 0.46854,2.246209 h -10.51446 q 0,1.419383 0.35829,2.63206 0.37207,1.212677 1.03353,2.094624 0.66146,0.881947 1.57097,1.378042 0.9095,0.496095 1.99816,0.496095 0.90951,0 1.75011,-0.289389 0.84061,-0.303169 1.51585,-0.785484 0.68902,-0.482315 1.17133,-1.102433 0.48232,-0.620119 0.67524,-1.281579 l 0.81305,0.35829 q -0.30317,1.088654 -0.97841,2.039503 -0.67524,0.950848 -1.58475,1.66743 -0.89573,0.702802 -1.95682,1.116214 -1.06109,0.413413 -2.14974,0.413413 z m 2.78364,-9.866781 q 0,-0.799264 -0.28939,-1.488285 -0.27561,-0.689021 -0.7717,-1.185116 -0.4961,-0.509876 -1.15756,-0.799264 -0.66146,-0.289389 -1.41938,-0.289389 -0.6339,0 -1.21268,0.289389 -0.57878,0.275608 -1.03353,0.785484 -0.45475,0.496095 -0.75792,1.185116 -0.28939,0.689021 -0.34451,1.488285 z"
         style="font-family:'Telugu MN';-inkscape-font-specification:'Telugu MN Bold';stroke-width:0.5"
         id="path1633" />
    </g>
    <path
       style="fill:#ff6600;fill-opacity:0.333333;stroke:#000080;stroke-width:0.499999"
       d="m 28.582459,98.055614 c 17.816562,-0.482882 33.351786,1.69374 90.260401,-0.410274"
       id="path1571"
       sodipodi:nodetypes="cc" />
  </g>
</svg>
